<?xml version="1.0" standalone="no"?>
<!DOCTYPE svg PUBLIC "-//W3C//DTD SVG 20010904//EN"
 "http://www.w3.org/TR/2001/REC-SVG-20010904/DTD/svg10.dtd">
<svg version="1.0" xmlns="http://www.w3.org/2000/svg"
 width="214.000000pt" height="207.000000pt" viewBox="0 0 214.000000 207.000000"
 preserveAspectRatio="xMidYMid meet">
<metadata>
Created by potrace 1.16, written by Peter Selinger 2001-2019
</metadata>
<g transform="translate(0.000000,207.000000) scale(0.100000,-0.100000)"
fill="#000000" stroke="none">
<path d="M1802 1668 c-16 -16 -15 -38 3 -58 14 -15 12 -18 -25 -30 -44 -15
-45 -16 -29 -71 14 -45 36 -57 56 -30 17 25 45 16 41 -13 -2 -15 -10 -21 -30
-21 -14 0 -29 -3 -32 -6 -7 -7 25 -99 35 -99 4 0 25 6 47 14 38 14 39 13 35
-5 -7 -25 14 -49 41 -49 43 0 59 39 31 70 -15 16 -13 19 25 34 22 9 40 19 40
23 0 19 -34 93 -42 93 -6 0 -18 -10 -28 -22 -14 -17 -21 -20 -30 -12 -21 21
-7 49 23 47 31 -2 33 9 15 69 -12 42 -14 43 -85 22 -18 -5 -22 -1 -25 23 -2
21 -9 29 -28 31 -14 2 -31 -3 -38 -10z"/>
<path d="M862 1277 c-25 -8 -32 -15 -29 -29 4 -14 -1 -18 -23 -18 -16 0 -30 6
-33 13 -3 8 -23 3 -71 -20 -63 -31 -84 -53 -51 -53 8 0 15 -7 15 -16 0 -12 -6
-15 -22 -10 -13 3 -32 6 -43 6 -17 0 -14 6 18 36 43 40 34 50 -36 41 -79 -11
-123 -96 -80 -156 l16 -24 16 29 16 29 3 -42 c2 -24 8 -43 14 -43 5 0 38 22
72 49 33 26 85 59 114 72 35 16 50 29 47 38 -4 11 3 12 36 7 l42 -7 -6 30 c-5
23 -2 30 13 34 14 4 20 -2 25 -22 l6 -26 107 -1 c69 0 130 -7 172 -18 59 -16
65 -16 76 -1 11 15 15 15 44 0 23 -12 35 -14 40 -6 4 7 11 2 18 -13 7 -16 8
-28 2 -31 -6 -4 -10 -13 -10 -21 0 -19 29 -18 36 1 4 9 19 15 36 15 42 0 32
18 -33 62 -85 58 -227 105 -204 68 3 -5 0 -12 -6 -15 -5 -4 -8 -14 -5 -22 3
-8 3 -13 -2 -11 -79 34 -92 44 -87 66 4 17 1 22 -15 22 -15 0 -20 -7 -20 -27
l-1 -28 -19 26 c-18 24 -26 26 -87 27 -38 0 -83 -5 -101 -11z"/>
<path d="M206 933 c-13 -49 16 -126 62 -165 28 -24 28 -24 10 -53 -11 -18 -18
-49 -18 -79 0 -43 4 -53 40 -88 35 -35 40 -46 40 -87 1 -56 24 -102 70 -136
39 -29 76 -34 66 -9 -14 38 -16 61 -7 84 9 24 10 24 10 -8 1 -54 40 -105 95
-124 27 -10 -29 -3 -61 7 -33 10 -29 -9 10 -51 28 -31 41 -37 85 -42 l52 -5 0
44 c0 85 -29 173 -107 327 l-78 154 0 96 c0 54 3 111 7 127 l6 30 -138 0
c-134 0 -139 -1 -144 -22z"/>
<path d="M1525 933 c17 -67 25 -141 19 -175 -5 -36 -4 -38 23 -39 17 -1 21 -3
11 -6 -10 -2 -18 -7 -18 -9 0 -3 18 -32 41 -65 22 -33 39 -68 37 -77 -2 -9
-20 -25 -41 -36 -35 -17 -38 -22 -34 -50 2 -17 -2 -40 -10 -53 -8 -12 -13 -27
-11 -35 1 -7 -4 -28 -11 -46 -20 -49 -1 -62 33 -22 17 21 26 44 27 68 1 37 1
37 11 9 7 -19 6 -37 -1 -59 -14 -40 -8 -45 33 -25 54 25 89 79 94 145 4 44 10
60 29 75 52 41 67 110 37 173 -19 40 -36 43 -58 9 -9 -13 -26 -30 -38 -36 -20
-11 -20 -9 4 20 33 38 45 93 29 129 -10 25 -10 26 4 8 8 -11 18 -34 21 -53 7
-38 7 -38 40 -16 37 24 64 84 64 143 l0 50 -171 0 -171 0 7 -27z"/>
<path d="M81 566 c-13 -16 -6 -56 10 -56 20 0 7 -18 -21 -30 -40 -17 -44 -24
-25 -59 19 -38 19 -38 -9 -45 -29 -7 -40 -31 -26 -57 13 -24 56 -25 69 -2 8
15 12 12 27 -20 20 -41 31 -44 74 -22 27 14 29 14 32 -7 4 -29 33 -46 56 -32
23 15 27 53 7 68 -14 10 -12 14 19 29 41 19 42 23 19 72 -18 38 -39 45 -58 18
-11 -14 -15 -15 -28 -4 -21 17 -10 41 19 41 28 0 31 18 9 60 -17 34 -33 37
-75 15 -28 -15 -29 -14 -32 13 -2 21 -9 28 -29 30 -14 2 -31 -4 -38 -12z"/>
</g>
</svg>
